<mxfile host="app.diagrams.net" modified="2022-02-21T12:19:58.807Z" agent="5.0 (Windows NT 10.0; Win64; x64) AppleWebKit/537.36 (KHTML, like Gecko) Chrome/98.0.4758.102 Safari/537.36" etag="sqy9MoN8iVMvvjomsmLP" version="16.6.1" type="github" pages="5">
  <diagram id="AYm3j54yCK5nMmzCIrk1" name="SDLC">
    <mxGraphModel dx="1704" dy="719" grid="1" gridSize="10" guides="1" tooltips="1" connect="1" arrows="1" fold="1" page="1" pageScale="1" pageWidth="850" pageHeight="1100" math="0" shadow="0">
      <root>
        <mxCell id="0" />
        <mxCell id="1" parent="0" />
        <mxCell id="F1fPBEQJZeEz-Qx_IwhT-1" value="" style="edgeStyle=orthogonalEdgeStyle;rounded=0;orthogonalLoop=1;jettySize=auto;html=1;fillColor=#dae8fc;strokeColor=#6c8ebf;" parent="1" source="F1fPBEQJZeEz-Qx_IwhT-3" target="F1fPBEQJZeEz-Qx_IwhT-7" edge="1">
          <mxGeometry relative="1" as="geometry" />
        </mxCell>
        <mxCell id="F1fPBEQJZeEz-Qx_IwhT-2" value="" style="edgeStyle=orthogonalEdgeStyle;rounded=0;orthogonalLoop=1;jettySize=auto;html=1;" parent="1" source="F1fPBEQJZeEz-Qx_IwhT-3" target="F1fPBEQJZeEz-Qx_IwhT-11" edge="1">
          <mxGeometry relative="1" as="geometry" />
        </mxCell>
        <mxCell id="F1fPBEQJZeEz-Qx_IwhT-3" value="Feasibility analysis" style="rounded=0;whiteSpace=wrap;html=1;fillColor=#dae8fc;strokeColor=#6c8ebf;" parent="1" vertex="1">
          <mxGeometry x="84" y="200" width="120" height="60" as="geometry" />
        </mxCell>
        <mxCell id="F1fPBEQJZeEz-Qx_IwhT-4" value="" style="edgeStyle=orthogonalEdgeStyle;rounded=0;orthogonalLoop=1;jettySize=auto;html=1;" parent="1" source="F1fPBEQJZeEz-Qx_IwhT-7" target="F1fPBEQJZeEz-Qx_IwhT-10" edge="1">
          <mxGeometry relative="1" as="geometry" />
        </mxCell>
        <mxCell id="F1fPBEQJZeEz-Qx_IwhT-5" value="" style="edgeStyle=orthogonalEdgeStyle;rounded=0;orthogonalLoop=1;jettySize=auto;html=1;" parent="1" source="F1fPBEQJZeEz-Qx_IwhT-7" target="F1fPBEQJZeEz-Qx_IwhT-13" edge="1">
          <mxGeometry relative="1" as="geometry" />
        </mxCell>
        <mxCell id="F1fPBEQJZeEz-Qx_IwhT-6" value="" style="edgeStyle=orthogonalEdgeStyle;rounded=0;orthogonalLoop=1;jettySize=auto;html=1;fillColor=#dae8fc;strokeColor=#6c8ebf;" parent="1" source="F1fPBEQJZeEz-Qx_IwhT-7" target="F1fPBEQJZeEz-Qx_IwhT-10" edge="1">
          <mxGeometry relative="1" as="geometry" />
        </mxCell>
        <mxCell id="F1fPBEQJZeEz-Qx_IwhT-7" value="Requirement analysis" style="rounded=0;whiteSpace=wrap;html=1;fillColor=#dae8fc;strokeColor=#6c8ebf;" parent="1" vertex="1">
          <mxGeometry x="244" y="200" width="120" height="60" as="geometry" />
        </mxCell>
        <mxCell id="F1fPBEQJZeEz-Qx_IwhT-8" value="" style="edgeStyle=orthogonalEdgeStyle;rounded=0;orthogonalLoop=1;jettySize=auto;html=1;" parent="1" source="F1fPBEQJZeEz-Qx_IwhT-10" target="F1fPBEQJZeEz-Qx_IwhT-18" edge="1">
          <mxGeometry relative="1" as="geometry" />
        </mxCell>
        <mxCell id="F1fPBEQJZeEz-Qx_IwhT-9" value="" style="edgeStyle=orthogonalEdgeStyle;rounded=0;orthogonalLoop=1;jettySize=auto;html=1;fillColor=#dae8fc;strokeColor=#6c8ebf;" parent="1" source="F1fPBEQJZeEz-Qx_IwhT-10" target="F1fPBEQJZeEz-Qx_IwhT-25" edge="1">
          <mxGeometry relative="1" as="geometry" />
        </mxCell>
        <mxCell id="F1fPBEQJZeEz-Qx_IwhT-10" value="Design" style="rounded=0;whiteSpace=wrap;html=1;fillColor=#dae8fc;strokeColor=#6c8ebf;" parent="1" vertex="1">
          <mxGeometry x="404" y="200" width="120" height="60" as="geometry" />
        </mxCell>
        <mxCell id="F1fPBEQJZeEz-Qx_IwhT-58" value="" style="edgeStyle=orthogonalEdgeStyle;rounded=0;orthogonalLoop=1;jettySize=auto;html=1;fontSize=36;" parent="1" source="F1fPBEQJZeEz-Qx_IwhT-11" target="F1fPBEQJZeEz-Qx_IwhT-57" edge="1">
          <mxGeometry relative="1" as="geometry" />
        </mxCell>
        <mxCell id="F1fPBEQJZeEz-Qx_IwhT-11" value="Identifying the aim and the procedure of the project" style="shape=document;whiteSpace=wrap;html=1;boundedLbl=1;" parent="1" vertex="1">
          <mxGeometry x="84" y="315" width="120" height="85" as="geometry" />
        </mxCell>
        <mxCell id="F1fPBEQJZeEz-Qx_IwhT-12" value="" style="edgeStyle=orthogonalEdgeStyle;rounded=0;orthogonalLoop=1;jettySize=auto;html=1;" parent="1" source="F1fPBEQJZeEz-Qx_IwhT-13" target="F1fPBEQJZeEz-Qx_IwhT-15" edge="1">
          <mxGeometry relative="1" as="geometry" />
        </mxCell>
        <mxCell id="F1fPBEQJZeEz-Qx_IwhT-13" value="&lt;span&gt;Identifying the technology to accomplish the project&lt;/span&gt;" style="shape=document;whiteSpace=wrap;html=1;boundedLbl=1;rounded=0;" parent="1" vertex="1">
          <mxGeometry x="234" y="315" width="140" height="80" as="geometry" />
        </mxCell>
        <mxCell id="F1fPBEQJZeEz-Qx_IwhT-14" value="" style="edgeStyle=orthogonalEdgeStyle;rounded=0;orthogonalLoop=1;jettySize=auto;html=1;" parent="1" source="F1fPBEQJZeEz-Qx_IwhT-15" target="F1fPBEQJZeEz-Qx_IwhT-16" edge="1">
          <mxGeometry relative="1" as="geometry" />
        </mxCell>
        <mxCell id="F1fPBEQJZeEz-Qx_IwhT-15" value="Dataset for the sign language" style="shape=document;whiteSpace=wrap;html=1;boundedLbl=1;rounded=0;" parent="1" vertex="1">
          <mxGeometry x="234" y="420" width="140" height="80" as="geometry" />
        </mxCell>
        <mxCell id="5Vd59NGnGNM8OoR70MD4-11" value="" style="edgeStyle=orthogonalEdgeStyle;rounded=0;orthogonalLoop=1;jettySize=auto;html=1;" parent="1" source="F1fPBEQJZeEz-Qx_IwhT-16" target="5Vd59NGnGNM8OoR70MD4-10" edge="1">
          <mxGeometry relative="1" as="geometry" />
        </mxCell>
        <mxCell id="F1fPBEQJZeEz-Qx_IwhT-16" value="Need of VM&#39;s for the high computational power usage" style="shape=document;whiteSpace=wrap;html=1;boundedLbl=1;rounded=0;" parent="1" vertex="1">
          <mxGeometry x="234" y="530" width="140" height="80" as="geometry" />
        </mxCell>
        <mxCell id="F1fPBEQJZeEz-Qx_IwhT-17" value="" style="edgeStyle=orthogonalEdgeStyle;rounded=0;orthogonalLoop=1;jettySize=auto;html=1;" parent="1" source="F1fPBEQJZeEz-Qx_IwhT-18" target="F1fPBEQJZeEz-Qx_IwhT-20" edge="1">
          <mxGeometry relative="1" as="geometry" />
        </mxCell>
        <mxCell id="F1fPBEQJZeEz-Qx_IwhT-18" value="Making a non clickable front end prototype for the application" style="shape=document;whiteSpace=wrap;html=1;boundedLbl=1;rounded=0;" parent="1" vertex="1">
          <mxGeometry x="404" y="315" width="120" height="80" as="geometry" />
        </mxCell>
        <mxCell id="5Vd59NGnGNM8OoR70MD4-7" value="" style="edgeStyle=orthogonalEdgeStyle;rounded=0;orthogonalLoop=1;jettySize=auto;html=1;" parent="1" source="F1fPBEQJZeEz-Qx_IwhT-20" target="5Vd59NGnGNM8OoR70MD4-6" edge="1">
          <mxGeometry relative="1" as="geometry" />
        </mxCell>
        <mxCell id="F1fPBEQJZeEz-Qx_IwhT-20" value="Navigable Prototype of the website to be built" style="shape=document;whiteSpace=wrap;html=1;boundedLbl=1;rounded=0;" parent="1" vertex="1">
          <mxGeometry x="404" y="420" width="120" height="80" as="geometry" />
        </mxCell>
        <mxCell id="F1fPBEQJZeEz-Qx_IwhT-23" value="" style="edgeStyle=orthogonalEdgeStyle;rounded=0;orthogonalLoop=1;jettySize=auto;html=1;" parent="1" source="F1fPBEQJZeEz-Qx_IwhT-25" target="F1fPBEQJZeEz-Qx_IwhT-27" edge="1">
          <mxGeometry relative="1" as="geometry" />
        </mxCell>
        <mxCell id="F1fPBEQJZeEz-Qx_IwhT-24" value="" style="edgeStyle=orthogonalEdgeStyle;rounded=0;orthogonalLoop=1;jettySize=auto;html=1;fillColor=#dae8fc;strokeColor=#6c8ebf;" parent="1" source="F1fPBEQJZeEz-Qx_IwhT-25" target="F1fPBEQJZeEz-Qx_IwhT-33" edge="1">
          <mxGeometry relative="1" as="geometry" />
        </mxCell>
        <mxCell id="F1fPBEQJZeEz-Qx_IwhT-25" value="Coding" style="rounded=0;whiteSpace=wrap;html=1;fillColor=#dae8fc;strokeColor=#6c8ebf;" parent="1" vertex="1">
          <mxGeometry x="568.5" y="200" width="120" height="60" as="geometry" />
        </mxCell>
        <mxCell id="F1fPBEQJZeEz-Qx_IwhT-26" value="" style="edgeStyle=orthogonalEdgeStyle;rounded=0;orthogonalLoop=1;jettySize=auto;html=1;" parent="1" source="F1fPBEQJZeEz-Qx_IwhT-27" target="F1fPBEQJZeEz-Qx_IwhT-29" edge="1">
          <mxGeometry relative="1" as="geometry" />
        </mxCell>
        <mxCell id="F1fPBEQJZeEz-Qx_IwhT-27" value="Writing the algorithms for the application" style="shape=document;whiteSpace=wrap;html=1;boundedLbl=1;rounded=0;" parent="1" vertex="1">
          <mxGeometry x="569" y="315" width="120" height="80" as="geometry" />
        </mxCell>
        <mxCell id="F1fPBEQJZeEz-Qx_IwhT-28" value="" style="edgeStyle=orthogonalEdgeStyle;rounded=0;orthogonalLoop=1;jettySize=auto;html=1;" parent="1" source="F1fPBEQJZeEz-Qx_IwhT-29" target="F1fPBEQJZeEz-Qx_IwhT-30" edge="1">
          <mxGeometry relative="1" as="geometry" />
        </mxCell>
        <mxCell id="F1fPBEQJZeEz-Qx_IwhT-29" value="Writing the front end code for the application" style="shape=document;whiteSpace=wrap;html=1;boundedLbl=1;rounded=0;" parent="1" vertex="1">
          <mxGeometry x="569" y="420" width="120" height="80" as="geometry" />
        </mxCell>
        <mxCell id="5Vd59NGnGNM8OoR70MD4-13" value="" style="edgeStyle=orthogonalEdgeStyle;rounded=0;orthogonalLoop=1;jettySize=auto;html=1;" parent="1" source="F1fPBEQJZeEz-Qx_IwhT-30" target="5Vd59NGnGNM8OoR70MD4-12" edge="1">
          <mxGeometry relative="1" as="geometry" />
        </mxCell>
        <mxCell id="F1fPBEQJZeEz-Qx_IwhT-30" value="Implementing the back end code with the algorithm for the application" style="shape=document;whiteSpace=wrap;html=1;boundedLbl=1;rounded=0;" parent="1" vertex="1">
          <mxGeometry x="569" y="540" width="120" height="80" as="geometry" />
        </mxCell>
        <mxCell id="F1fPBEQJZeEz-Qx_IwhT-31" value="" style="edgeStyle=orthogonalEdgeStyle;rounded=0;orthogonalLoop=1;jettySize=auto;html=1;" parent="1" source="F1fPBEQJZeEz-Qx_IwhT-33" target="F1fPBEQJZeEz-Qx_IwhT-34" edge="1">
          <mxGeometry relative="1" as="geometry" />
        </mxCell>
        <mxCell id="F1fPBEQJZeEz-Qx_IwhT-32" value="" style="edgeStyle=orthogonalEdgeStyle;rounded=0;orthogonalLoop=1;jettySize=auto;html=1;fillColor=#dae8fc;strokeColor=#6c8ebf;" parent="1" source="F1fPBEQJZeEz-Qx_IwhT-33" target="F1fPBEQJZeEz-Qx_IwhT-38" edge="1">
          <mxGeometry relative="1" as="geometry" />
        </mxCell>
        <mxCell id="F1fPBEQJZeEz-Qx_IwhT-33" value="Testing" style="rounded=0;whiteSpace=wrap;html=1;fillColor=#dae8fc;strokeColor=#6c8ebf;" parent="1" vertex="1">
          <mxGeometry x="724" y="200" width="120" height="60" as="geometry" />
        </mxCell>
        <mxCell id="5Vd59NGnGNM8OoR70MD4-17" value="" style="edgeStyle=orthogonalEdgeStyle;rounded=0;orthogonalLoop=1;jettySize=auto;html=1;" parent="1" source="F1fPBEQJZeEz-Qx_IwhT-34" target="5Vd59NGnGNM8OoR70MD4-16" edge="1">
          <mxGeometry relative="1" as="geometry" />
        </mxCell>
        <mxCell id="F1fPBEQJZeEz-Qx_IwhT-34" value="Testing and debugging the code written" style="shape=document;whiteSpace=wrap;html=1;boundedLbl=1;rounded=0;" parent="1" vertex="1">
          <mxGeometry x="724" y="315" width="120" height="80" as="geometry" />
        </mxCell>
        <mxCell id="F1fPBEQJZeEz-Qx_IwhT-36" value="" style="edgeStyle=orthogonalEdgeStyle;rounded=0;orthogonalLoop=1;jettySize=auto;html=1;" parent="1" source="F1fPBEQJZeEz-Qx_IwhT-38" target="F1fPBEQJZeEz-Qx_IwhT-40" edge="1">
          <mxGeometry relative="1" as="geometry" />
        </mxCell>
        <mxCell id="F1fPBEQJZeEz-Qx_IwhT-37" value="" style="edgeStyle=orthogonalEdgeStyle;rounded=0;orthogonalLoop=1;jettySize=auto;html=1;fillColor=#dae8fc;strokeColor=#6c8ebf;" parent="1" source="F1fPBEQJZeEz-Qx_IwhT-38" target="F1fPBEQJZeEz-Qx_IwhT-43" edge="1">
          <mxGeometry relative="1" as="geometry" />
        </mxCell>
        <mxCell id="F1fPBEQJZeEz-Qx_IwhT-38" value="Deployment" style="whiteSpace=wrap;html=1;rounded=0;fillColor=#dae8fc;strokeColor=#6c8ebf;" parent="1" vertex="1">
          <mxGeometry x="884" y="200" width="120" height="60" as="geometry" />
        </mxCell>
        <mxCell id="F1fPBEQJZeEz-Qx_IwhT-39" value="" style="edgeStyle=orthogonalEdgeStyle;rounded=0;orthogonalLoop=1;jettySize=auto;html=1;" parent="1" source="F1fPBEQJZeEz-Qx_IwhT-40" target="F1fPBEQJZeEz-Qx_IwhT-41" edge="1">
          <mxGeometry relative="1" as="geometry" />
        </mxCell>
        <mxCell id="F1fPBEQJZeEz-Qx_IwhT-40" value="Deploying the website on the server and making the application public" style="shape=document;whiteSpace=wrap;html=1;boundedLbl=1;rounded=0;" parent="1" vertex="1">
          <mxGeometry x="884" y="315" width="120" height="80" as="geometry" />
        </mxCell>
        <mxCell id="F1fPBEQJZeEz-Qx_IwhT-41" value="Acceptance document to be made and attested" style="shape=document;whiteSpace=wrap;html=1;boundedLbl=1;rounded=0;" parent="1" vertex="1">
          <mxGeometry x="884" y="414" width="120" height="86" as="geometry" />
        </mxCell>
        <mxCell id="5Vd59NGnGNM8OoR70MD4-2" value="" style="edgeStyle=orthogonalEdgeStyle;rounded=0;orthogonalLoop=1;jettySize=auto;html=1;" parent="1" source="F1fPBEQJZeEz-Qx_IwhT-43" target="5Vd59NGnGNM8OoR70MD4-1" edge="1">
          <mxGeometry relative="1" as="geometry" />
        </mxCell>
        <mxCell id="F1fPBEQJZeEz-Qx_IwhT-43" value="Scaling" style="whiteSpace=wrap;html=1;rounded=0;fillColor=#dae8fc;strokeColor=#6c8ebf;" parent="1" vertex="1">
          <mxGeometry x="1044" y="200" width="120" height="60" as="geometry" />
        </mxCell>
        <mxCell id="F1fPBEQJZeEz-Qx_IwhT-45" value="Implementing the program to video conferencing applications like MS Teams&amp;nbsp;" style="shape=document;whiteSpace=wrap;html=1;boundedLbl=1;rounded=0;" parent="1" vertex="1">
          <mxGeometry x="1031" y="440" width="146" height="80" as="geometry" />
        </mxCell>
        <mxCell id="F1fPBEQJZeEz-Qx_IwhT-47" value="Phase 1&lt;br&gt;Formation" style="text;html=1;strokeColor=none;fillColor=none;align=center;verticalAlign=middle;whiteSpace=wrap;rounded=0;" parent="1" vertex="1">
          <mxGeometry x="108" y="130" width="60" height="30" as="geometry" />
        </mxCell>
        <mxCell id="F1fPBEQJZeEz-Qx_IwhT-48" value="Phase 2&lt;br&gt;Requirement/ Planning" style="text;html=1;strokeColor=none;fillColor=none;align=center;verticalAlign=middle;whiteSpace=wrap;rounded=0;" parent="1" vertex="1">
          <mxGeometry x="268" y="130" width="60" height="30" as="geometry" />
        </mxCell>
        <mxCell id="F1fPBEQJZeEz-Qx_IwhT-49" value="Phase 3&lt;br&gt;Design" style="text;html=1;strokeColor=none;fillColor=none;align=center;verticalAlign=middle;whiteSpace=wrap;rounded=0;" parent="1" vertex="1">
          <mxGeometry x="428" y="130" width="60" height="30" as="geometry" />
        </mxCell>
        <mxCell id="F1fPBEQJZeEz-Qx_IwhT-50" value="Phase 4&lt;br&gt;Construct" style="text;html=1;strokeColor=none;fillColor=none;align=center;verticalAlign=middle;whiteSpace=wrap;rounded=0;" parent="1" vertex="1">
          <mxGeometry x="593" y="130" width="60" height="30" as="geometry" />
        </mxCell>
        <mxCell id="F1fPBEQJZeEz-Qx_IwhT-51" value="Phase 5&lt;br&gt;Test" style="text;html=1;strokeColor=none;fillColor=none;align=center;verticalAlign=middle;whiteSpace=wrap;rounded=0;" parent="1" vertex="1">
          <mxGeometry x="748" y="130" width="60" height="30" as="geometry" />
        </mxCell>
        <mxCell id="F1fPBEQJZeEz-Qx_IwhT-52" value="Phase 6&lt;br&gt;Product release" style="text;html=1;strokeColor=none;fillColor=none;align=center;verticalAlign=middle;whiteSpace=wrap;rounded=0;" parent="1" vertex="1">
          <mxGeometry x="908" y="130" width="60" height="30" as="geometry" />
        </mxCell>
        <mxCell id="F1fPBEQJZeEz-Qx_IwhT-53" value="Phase 7&lt;br&gt;Post Implementation" style="text;html=1;strokeColor=none;fillColor=none;align=center;verticalAlign=middle;whiteSpace=wrap;rounded=0;" parent="1" vertex="1">
          <mxGeometry x="1068" y="130" width="60" height="30" as="geometry" />
        </mxCell>
        <mxCell id="F1fPBEQJZeEz-Qx_IwhT-54" value="" style="endArrow=none;html=1;rounded=0;" parent="1" edge="1">
          <mxGeometry width="50" height="50" relative="1" as="geometry">
            <mxPoint x="98" y="110" as="sourcePoint" />
            <mxPoint x="1148" y="110" as="targetPoint" />
          </mxGeometry>
        </mxCell>
        <mxCell id="F1fPBEQJZeEz-Qx_IwhT-55" value="" style="endArrow=none;html=1;rounded=0;" parent="1" edge="1">
          <mxGeometry width="50" height="50" relative="1" as="geometry">
            <mxPoint x="101" y="180" as="sourcePoint" />
            <mxPoint x="1150" y="180" as="targetPoint" />
          </mxGeometry>
        </mxCell>
        <mxCell id="F1fPBEQJZeEz-Qx_IwhT-56" value="&lt;b&gt;&lt;font style=&quot;font-size: 36px&quot;&gt;Sign Language Detection&amp;nbsp;&lt;/font&gt;&lt;/b&gt;" style="text;html=1;align=center;verticalAlign=middle;resizable=0;points=[];autosize=1;strokeColor=none;fillColor=none;" parent="1" vertex="1">
          <mxGeometry x="399" y="40" width="460" height="30" as="geometry" />
        </mxCell>
        <mxCell id="5Vd59NGnGNM8OoR70MD4-5" value="" style="edgeStyle=orthogonalEdgeStyle;rounded=0;orthogonalLoop=1;jettySize=auto;html=1;" parent="1" source="F1fPBEQJZeEz-Qx_IwhT-57" target="5Vd59NGnGNM8OoR70MD4-4" edge="1">
          <mxGeometry relative="1" as="geometry" />
        </mxCell>
        <mxCell id="F1fPBEQJZeEz-Qx_IwhT-57" value="Checking if we can get the time, funding, technology and technical people for the project" style="shape=document;whiteSpace=wrap;html=1;boundedLbl=1;" parent="1" vertex="1">
          <mxGeometry x="84" y="420" width="120" height="120" as="geometry" />
        </mxCell>
        <mxCell id="5Vd59NGnGNM8OoR70MD4-3" value="" style="edgeStyle=orthogonalEdgeStyle;rounded=0;orthogonalLoop=1;jettySize=auto;html=1;" parent="1" source="5Vd59NGnGNM8OoR70MD4-1" target="F1fPBEQJZeEz-Qx_IwhT-45" edge="1">
          <mxGeometry relative="1" as="geometry" />
        </mxCell>
        <mxCell id="5Vd59NGnGNM8OoR70MD4-1" value="Making a plugin of the application for other video conferencing platforms&amp;nbsp;" style="shape=document;whiteSpace=wrap;html=1;boundedLbl=1;rounded=0;" parent="1" vertex="1">
          <mxGeometry x="1031" y="317.5" width="146" height="80" as="geometry" />
        </mxCell>
        <mxCell id="5Vd59NGnGNM8OoR70MD4-9" value="" style="edgeStyle=orthogonalEdgeStyle;rounded=0;orthogonalLoop=1;jettySize=auto;html=1;" parent="1" source="5Vd59NGnGNM8OoR70MD4-4" target="5Vd59NGnGNM8OoR70MD4-8" edge="1">
          <mxGeometry relative="1" as="geometry" />
        </mxCell>
        <mxCell id="5Vd59NGnGNM8OoR70MD4-4" value="Survey with the targeted community for estimating the need of our project" style="shape=document;whiteSpace=wrap;html=1;boundedLbl=1;" parent="1" vertex="1">
          <mxGeometry x="84" y="560" width="120" height="100" as="geometry" />
        </mxCell>
        <mxCell id="5Vd59NGnGNM8OoR70MD4-15" value="" style="edgeStyle=orthogonalEdgeStyle;rounded=0;orthogonalLoop=1;jettySize=auto;html=1;" parent="1" source="5Vd59NGnGNM8OoR70MD4-6" target="5Vd59NGnGNM8OoR70MD4-14" edge="1">
          <mxGeometry relative="1" as="geometry" />
        </mxCell>
        <mxCell id="5Vd59NGnGNM8OoR70MD4-6" value="Design review" style="shape=document;whiteSpace=wrap;html=1;boundedLbl=1;rounded=0;" parent="1" vertex="1">
          <mxGeometry x="404" y="540" width="120" height="60" as="geometry" />
        </mxCell>
        <mxCell id="5Vd59NGnGNM8OoR70MD4-8" value="Making a feasibility analysis report" style="shape=document;whiteSpace=wrap;html=1;boundedLbl=1;" parent="1" vertex="1">
          <mxGeometry x="84" y="690" width="120" height="100" as="geometry" />
        </mxCell>
        <mxCell id="5Vd59NGnGNM8OoR70MD4-10" value="Putting together the change of scope document&amp;nbsp;" style="shape=document;whiteSpace=wrap;html=1;boundedLbl=1;rounded=0;" parent="1" vertex="1">
          <mxGeometry x="234" y="640" width="140" height="80" as="geometry" />
        </mxCell>
        <mxCell id="5Vd59NGnGNM8OoR70MD4-12" value="Making the user and developer documentation" style="shape=document;whiteSpace=wrap;html=1;boundedLbl=1;rounded=0;" parent="1" vertex="1">
          <mxGeometry x="568.5" y="650" width="120" height="80" as="geometry" />
        </mxCell>
        <mxCell id="5Vd59NGnGNM8OoR70MD4-14" value="Preparing the design document and getting it approved" style="shape=document;whiteSpace=wrap;html=1;boundedLbl=1;rounded=0;" parent="1" vertex="1">
          <mxGeometry x="404" y="630" width="120" height="80" as="geometry" />
        </mxCell>
        <mxCell id="5Vd59NGnGNM8OoR70MD4-16" value="Summary of the system and its performance" style="shape=document;whiteSpace=wrap;html=1;boundedLbl=1;rounded=0;" parent="1" vertex="1">
          <mxGeometry x="724" y="420" width="120" height="80" as="geometry" />
        </mxCell>
      </root>
    </mxGraphModel>
  </diagram>
  <diagram id="RrWhfti66ElNoA3uiIfH" name="Iterative">
    <mxGraphModel dx="1504" dy="634" grid="1" gridSize="10" guides="1" tooltips="1" connect="1" arrows="1" fold="1" page="1" pageScale="1" pageWidth="850" pageHeight="1100" math="0" shadow="0">
      <root>
        <mxCell id="ViLCCdHhcsLGa3fP9myr-0" />
        <mxCell id="ViLCCdHhcsLGa3fP9myr-1" parent="ViLCCdHhcsLGa3fP9myr-0" />
        <mxCell id="ViLCCdHhcsLGa3fP9myr-2" value="&lt;b&gt;&lt;font style=&quot;font-size: 36px&quot;&gt;Iterative Waterfall model&amp;nbsp;&lt;/font&gt;&lt;span style=&quot;font-size: 36px&quot;&gt;for Sign language detection&lt;/span&gt;&lt;/b&gt;" style="text;html=1;align=center;verticalAlign=middle;resizable=0;points=[];autosize=1;strokeColor=none;fillColor=none;" vertex="1" parent="ViLCCdHhcsLGa3fP9myr-1">
          <mxGeometry x="95" y="50" width="910" height="30" as="geometry" />
        </mxCell>
        <mxCell id="ViLCCdHhcsLGa3fP9myr-3" value="" style="edgeStyle=orthogonalEdgeStyle;rounded=0;orthogonalLoop=1;jettySize=auto;html=1;fontSize=12;" edge="1" parent="ViLCCdHhcsLGa3fP9myr-1" source="ViLCCdHhcsLGa3fP9myr-6" target="ViLCCdHhcsLGa3fP9myr-9">
          <mxGeometry relative="1" as="geometry" />
        </mxCell>
        <mxCell id="ViLCCdHhcsLGa3fP9myr-4" style="edgeStyle=none;rounded=0;orthogonalLoop=1;jettySize=auto;html=1;exitX=0.5;exitY=1;exitDx=0;exitDy=0;fontSize=36;" edge="1" parent="ViLCCdHhcsLGa3fP9myr-1" source="ViLCCdHhcsLGa3fP9myr-6">
          <mxGeometry relative="1" as="geometry">
            <mxPoint x="165" y="730" as="targetPoint" />
          </mxGeometry>
        </mxCell>
        <mxCell id="ViLCCdHhcsLGa3fP9myr-6" value="Checking if we can get the time, funding, technology and technical people for the project&lt;br&gt;Survey with the targeted community for estimating the need of our project" style="rounded=1;whiteSpace=wrap;html=1;fontSize=12;fillColor=#66FFFF;" vertex="1" parent="ViLCCdHhcsLGa3fP9myr-1">
          <mxGeometry x="80" y="139" width="170" height="110" as="geometry" />
        </mxCell>
        <mxCell id="ViLCCdHhcsLGa3fP9myr-7" value="" style="edgeStyle=orthogonalEdgeStyle;rounded=0;orthogonalLoop=1;jettySize=auto;html=1;fontSize=12;" edge="1" parent="ViLCCdHhcsLGa3fP9myr-1" source="ViLCCdHhcsLGa3fP9myr-9" target="ViLCCdHhcsLGa3fP9myr-12">
          <mxGeometry relative="1" as="geometry" />
        </mxCell>
        <mxCell id="ViLCCdHhcsLGa3fP9myr-9" value="&lt;span&gt;Identifying the technology, dataset and computational power to accomplish the project&lt;/span&gt;" style="rounded=1;whiteSpace=wrap;html=1;fillColor=#66FFFF;" vertex="1" parent="ViLCCdHhcsLGa3fP9myr-1">
          <mxGeometry x="259" y="259" width="140" height="80" as="geometry" />
        </mxCell>
        <mxCell id="ViLCCdHhcsLGa3fP9myr-10" style="edgeStyle=orthogonalEdgeStyle;rounded=0;orthogonalLoop=1;jettySize=auto;html=1;exitX=1;exitY=0.5;exitDx=0;exitDy=0;entryX=0.5;entryY=0;entryDx=0;entryDy=0;fontSize=12;" edge="1" parent="ViLCCdHhcsLGa3fP9myr-1" source="ViLCCdHhcsLGa3fP9myr-12" target="ViLCCdHhcsLGa3fP9myr-15">
          <mxGeometry relative="1" as="geometry" />
        </mxCell>
        <mxCell id="ViLCCdHhcsLGa3fP9myr-11" style="edgeStyle=none;rounded=0;orthogonalLoop=1;jettySize=auto;html=1;exitX=0.5;exitY=1;exitDx=0;exitDy=0;fontSize=36;" edge="1" parent="ViLCCdHhcsLGa3fP9myr-1" source="ViLCCdHhcsLGa3fP9myr-12">
          <mxGeometry relative="1" as="geometry">
            <mxPoint x="479" y="730" as="targetPoint" />
          </mxGeometry>
        </mxCell>
        <mxCell id="ViLCCdHhcsLGa3fP9myr-12" value="Designing a GUI for the application, making it user friendly" style="rounded=1;whiteSpace=wrap;html=1;fillColor=#66FFFF;" vertex="1" parent="ViLCCdHhcsLGa3fP9myr-1">
          <mxGeometry x="419" y="349" width="120" height="60" as="geometry" />
        </mxCell>
        <mxCell id="ViLCCdHhcsLGa3fP9myr-13" value="" style="edgeStyle=orthogonalEdgeStyle;rounded=0;orthogonalLoop=1;jettySize=auto;html=1;fontSize=12;" edge="1" parent="ViLCCdHhcsLGa3fP9myr-1" source="ViLCCdHhcsLGa3fP9myr-15" target="ViLCCdHhcsLGa3fP9myr-18">
          <mxGeometry relative="1" as="geometry" />
        </mxCell>
        <mxCell id="ViLCCdHhcsLGa3fP9myr-14" style="edgeStyle=none;rounded=0;orthogonalLoop=1;jettySize=auto;html=1;exitX=0.5;exitY=1;exitDx=0;exitDy=0;fontSize=36;" edge="1" parent="ViLCCdHhcsLGa3fP9myr-1" source="ViLCCdHhcsLGa3fP9myr-15">
          <mxGeometry relative="1" as="geometry">
            <mxPoint x="624" y="730" as="targetPoint" />
          </mxGeometry>
        </mxCell>
        <mxCell id="ViLCCdHhcsLGa3fP9myr-15" value="Writing the code for the front end, back end and the algorithms needed for the functioning of the website" style="rounded=1;whiteSpace=wrap;html=1;fontSize=12;fillColor=#66FFFF;" vertex="1" parent="ViLCCdHhcsLGa3fP9myr-1">
          <mxGeometry x="549" y="419" width="150" height="80" as="geometry" />
        </mxCell>
        <mxCell id="ViLCCdHhcsLGa3fP9myr-16" value="" style="edgeStyle=orthogonalEdgeStyle;rounded=0;orthogonalLoop=1;jettySize=auto;html=1;fontSize=12;" edge="1" parent="ViLCCdHhcsLGa3fP9myr-1" source="ViLCCdHhcsLGa3fP9myr-18" target="ViLCCdHhcsLGa3fP9myr-19">
          <mxGeometry relative="1" as="geometry" />
        </mxCell>
        <mxCell id="ViLCCdHhcsLGa3fP9myr-17" style="edgeStyle=orthogonalEdgeStyle;rounded=0;orthogonalLoop=1;jettySize=auto;html=1;exitX=0.5;exitY=1;exitDx=0;exitDy=0;fontSize=12;" edge="1" parent="ViLCCdHhcsLGa3fP9myr-1" source="ViLCCdHhcsLGa3fP9myr-18">
          <mxGeometry relative="1" as="geometry">
            <mxPoint x="799" y="730" as="targetPoint" />
          </mxGeometry>
        </mxCell>
        <mxCell id="ViLCCdHhcsLGa3fP9myr-18" value="Testing and debugging the product" style="rounded=1;whiteSpace=wrap;html=1;fillColor=#66FFFF;" vertex="1" parent="ViLCCdHhcsLGa3fP9myr-1">
          <mxGeometry x="739" y="509" width="120" height="60" as="geometry" />
        </mxCell>
        <mxCell id="vx36vR8SGsaA1ydmZOgh-1" style="edgeStyle=orthogonalEdgeStyle;rounded=0;orthogonalLoop=1;jettySize=auto;html=1;exitX=1;exitY=0.5;exitDx=0;exitDy=0;entryX=0.5;entryY=0;entryDx=0;entryDy=0;" edge="1" parent="ViLCCdHhcsLGa3fP9myr-1" source="ViLCCdHhcsLGa3fP9myr-19" target="vx36vR8SGsaA1ydmZOgh-0">
          <mxGeometry relative="1" as="geometry" />
        </mxCell>
        <mxCell id="ViLCCdHhcsLGa3fP9myr-19" value="Deploying the website on the server and making the application public" style="rounded=1;whiteSpace=wrap;html=1;fillColor=#66FFFF;" vertex="1" parent="ViLCCdHhcsLGa3fP9myr-1">
          <mxGeometry x="890" y="589" width="120" height="60" as="geometry" />
        </mxCell>
        <mxCell id="ViLCCdHhcsLGa3fP9myr-20" style="edgeStyle=orthogonalEdgeStyle;rounded=0;orthogonalLoop=1;jettySize=auto;html=1;fontSize=12;" edge="1" parent="ViLCCdHhcsLGa3fP9myr-1">
          <mxGeometry relative="1" as="geometry">
            <mxPoint x="623.41" y="499" as="targetPoint" />
            <mxPoint x="623.41" y="720" as="sourcePoint" />
            <Array as="points">
              <mxPoint x="623.41" y="609" />
              <mxPoint x="623.41" y="609" />
            </Array>
          </mxGeometry>
        </mxCell>
        <mxCell id="ViLCCdHhcsLGa3fP9myr-21" style="edgeStyle=orthogonalEdgeStyle;rounded=0;orthogonalLoop=1;jettySize=auto;html=1;fontSize=12;" edge="1" parent="ViLCCdHhcsLGa3fP9myr-1">
          <mxGeometry relative="1" as="geometry">
            <mxPoint x="798.82" y="569" as="targetPoint" />
            <mxPoint x="798.41" y="729" as="sourcePoint" />
            <Array as="points">
              <mxPoint x="798.8199999999999" y="629" />
              <mxPoint x="798.8199999999999" y="629" />
            </Array>
          </mxGeometry>
        </mxCell>
        <mxCell id="ViLCCdHhcsLGa3fP9myr-22" style="edgeStyle=none;rounded=0;orthogonalLoop=1;jettySize=auto;html=1;fontSize=36;" edge="1" parent="ViLCCdHhcsLGa3fP9myr-1">
          <mxGeometry relative="1" as="geometry">
            <mxPoint x="478.88000000000005" y="409" as="targetPoint" />
            <mxPoint x="478.41" y="730" as="sourcePoint" />
          </mxGeometry>
        </mxCell>
        <mxCell id="TGfzYzS6f_Duhr-Xaob--0" style="edgeStyle=none;rounded=0;orthogonalLoop=1;jettySize=auto;html=1;exitX=0.5;exitY=1;exitDx=0;exitDy=0;fontSize=36;" edge="1" parent="ViLCCdHhcsLGa3fP9myr-1">
          <mxGeometry relative="1" as="geometry">
            <mxPoint x="164.41" y="249" as="targetPoint" />
            <mxPoint x="164.93941176470594" y="707.9999999999998" as="sourcePoint" />
          </mxGeometry>
        </mxCell>
        <mxCell id="65GvRDiFg0YKRbKwPv4D-0" value="" style="endArrow=classic;html=1;rounded=0;entryX=0;entryY=0.5;entryDx=0;entryDy=0;" edge="1" parent="ViLCCdHhcsLGa3fP9myr-1" target="vx36vR8SGsaA1ydmZOgh-0">
          <mxGeometry width="50" height="50" relative="1" as="geometry">
            <mxPoint x="160" y="730" as="sourcePoint" />
            <mxPoint x="890" y="729.41" as="targetPoint" />
          </mxGeometry>
        </mxCell>
        <mxCell id="vx36vR8SGsaA1ydmZOgh-0" value="Modifying features depending on the users feedback and rating" style="rounded=1;whiteSpace=wrap;html=1;fillColor=#66FFFF;" vertex="1" parent="ViLCCdHhcsLGa3fP9myr-1">
          <mxGeometry x="1010" y="700" width="120" height="60" as="geometry" />
        </mxCell>
        <mxCell id="05Imb2gscoI-KkWDRDW2-0" value="" style="endArrow=classic;startArrow=classic;html=1;rounded=0;" edge="1" parent="ViLCCdHhcsLGa3fP9myr-1">
          <mxGeometry width="50" height="50" relative="1" as="geometry">
            <mxPoint x="320" y="730" as="sourcePoint" />
            <mxPoint x="320" y="340" as="targetPoint" />
            <Array as="points" />
          </mxGeometry>
        </mxCell>
        <mxCell id="05Imb2gscoI-KkWDRDW2-1" value="" style="endArrow=classic;startArrow=classic;html=1;rounded=0;" edge="1" parent="ViLCCdHhcsLGa3fP9myr-1">
          <mxGeometry width="50" height="50" relative="1" as="geometry">
            <mxPoint x="949.41" y="729" as="sourcePoint" />
            <mxPoint x="949.41" y="649" as="targetPoint" />
          </mxGeometry>
        </mxCell>
      </root>
    </mxGraphModel>
  </diagram>
  <diagram id="Ff1skjz0Cez5keHcvygA" name="Prototyping">
    <mxGraphModel dx="1504" dy="634" grid="1" gridSize="10" guides="1" tooltips="1" connect="1" arrows="1" fold="1" page="1" pageScale="1" pageWidth="850" pageHeight="1100" math="0" shadow="0">
      <root>
        <mxCell id="mQXYbLhgj30lvq0sb5Eb-0" />
        <mxCell id="mQXYbLhgj30lvq0sb5Eb-1" parent="mQXYbLhgj30lvq0sb5Eb-0" />
        <mxCell id="3c4MEUsWvrZjwtGZ-gOU-0" value="&lt;b&gt;Prototyping Model for Sign language detection&lt;/b&gt;" style="text;html=1;align=center;verticalAlign=middle;resizable=0;points=[];autosize=1;strokeColor=none;fillColor=none;fontSize=36;" vertex="1" parent="mQXYbLhgj30lvq0sb5Eb-1">
          <mxGeometry x="339" y="30" width="820" height="50" as="geometry" />
        </mxCell>
        <mxCell id="3c4MEUsWvrZjwtGZ-gOU-1" value="" style="edgeStyle=none;rounded=0;orthogonalLoop=1;jettySize=auto;html=1;fontSize=12;" edge="1" parent="mQXYbLhgj30lvq0sb5Eb-1" source="3c4MEUsWvrZjwtGZ-gOU-2" target="3c4MEUsWvrZjwtGZ-gOU-4">
          <mxGeometry relative="1" as="geometry" />
        </mxCell>
        <mxCell id="3c4MEUsWvrZjwtGZ-gOU-2" value="Identifying the technology, dataset and computational power to accomplish the project" style="rounded=1;whiteSpace=wrap;html=1;fontSize=12;fillColor=#00FFFF;" vertex="1" parent="mQXYbLhgj30lvq0sb5Eb-1">
          <mxGeometry x="309" y="225" width="160" height="90" as="geometry" />
        </mxCell>
        <mxCell id="3c4MEUsWvrZjwtGZ-gOU-3" value="" style="edgeStyle=none;rounded=0;orthogonalLoop=1;jettySize=auto;html=1;fontSize=12;" edge="1" parent="mQXYbLhgj30lvq0sb5Eb-1" source="3c4MEUsWvrZjwtGZ-gOU-4" target="3c4MEUsWvrZjwtGZ-gOU-6">
          <mxGeometry relative="1" as="geometry">
            <Array as="points">
              <mxPoint x="569" y="160" />
            </Array>
          </mxGeometry>
        </mxCell>
        <mxCell id="3c4MEUsWvrZjwtGZ-gOU-4" value="Quick Design of the pages of the website according to the different features" style="whiteSpace=wrap;html=1;rounded=1;fillColor=#00FFFF;" vertex="1" parent="mQXYbLhgj30lvq0sb5Eb-1">
          <mxGeometry x="509" y="240" width="120" height="60" as="geometry" />
        </mxCell>
        <mxCell id="iEc7M-l2dHr3bz0mB3xG-1" style="edgeStyle=orthogonalEdgeStyle;rounded=0;orthogonalLoop=1;jettySize=auto;html=1;exitX=1;exitY=0.5;exitDx=0;exitDy=0;entryX=0.5;entryY=0;entryDx=0;entryDy=0;" edge="1" parent="mQXYbLhgj30lvq0sb5Eb-1" source="3c4MEUsWvrZjwtGZ-gOU-6" target="3c4MEUsWvrZjwtGZ-gOU-9">
          <mxGeometry relative="1" as="geometry" />
        </mxCell>
        <mxCell id="3c4MEUsWvrZjwtGZ-gOU-6" value="Building Prototype in accordance with the design" style="whiteSpace=wrap;html=1;rounded=1;fillColor=#00FFFF;" vertex="1" parent="mQXYbLhgj30lvq0sb5Eb-1">
          <mxGeometry x="689" y="130" width="120" height="60" as="geometry" />
        </mxCell>
        <mxCell id="3c4MEUsWvrZjwtGZ-gOU-8" value="" style="edgeStyle=none;rounded=0;orthogonalLoop=1;jettySize=auto;html=1;fontSize=12;" edge="1" parent="mQXYbLhgj30lvq0sb5Eb-1" source="3c4MEUsWvrZjwtGZ-gOU-9" target="3c4MEUsWvrZjwtGZ-gOU-13">
          <mxGeometry relative="1" as="geometry" />
        </mxCell>
        <mxCell id="iEc7M-l2dHr3bz0mB3xG-0" style="edgeStyle=orthogonalEdgeStyle;rounded=0;orthogonalLoop=1;jettySize=auto;html=1;exitX=0.5;exitY=1;exitDx=0;exitDy=0;entryX=1;entryY=0.5;entryDx=0;entryDy=0;" edge="1" parent="mQXYbLhgj30lvq0sb5Eb-1" source="3c4MEUsWvrZjwtGZ-gOU-9" target="3c4MEUsWvrZjwtGZ-gOU-11">
          <mxGeometry relative="1" as="geometry" />
        </mxCell>
        <mxCell id="3c4MEUsWvrZjwtGZ-gOU-9" value="Feedback of the design by the stakeholders" style="whiteSpace=wrap;html=1;rounded=1;fillColor=#00FFFF;" vertex="1" parent="mQXYbLhgj30lvq0sb5Eb-1">
          <mxGeometry x="850" y="240" width="120" height="60" as="geometry" />
        </mxCell>
        <mxCell id="3c4MEUsWvrZjwtGZ-gOU-10" style="edgeStyle=none;rounded=0;orthogonalLoop=1;jettySize=auto;html=1;exitX=0;exitY=0.5;exitDx=0;exitDy=0;entryX=0.5;entryY=1;entryDx=0;entryDy=0;fontSize=12;" edge="1" parent="mQXYbLhgj30lvq0sb5Eb-1" source="3c4MEUsWvrZjwtGZ-gOU-11" target="3c4MEUsWvrZjwtGZ-gOU-4">
          <mxGeometry relative="1" as="geometry">
            <Array as="points">
              <mxPoint x="569" y="380" />
            </Array>
          </mxGeometry>
        </mxCell>
        <mxCell id="3c4MEUsWvrZjwtGZ-gOU-11" value="Refined prototype according to the customer&#39;s needs" style="rounded=1;whiteSpace=wrap;html=1;fillColor=#00FFFF;" vertex="1" parent="mQXYbLhgj30lvq0sb5Eb-1">
          <mxGeometry x="689" y="350" width="120" height="60" as="geometry" />
        </mxCell>
        <mxCell id="3c4MEUsWvrZjwtGZ-gOU-12" value="" style="edgeStyle=none;rounded=0;orthogonalLoop=1;jettySize=auto;html=1;fontSize=12;" edge="1" parent="mQXYbLhgj30lvq0sb5Eb-1" source="3c4MEUsWvrZjwtGZ-gOU-13" target="3c4MEUsWvrZjwtGZ-gOU-15">
          <mxGeometry relative="1" as="geometry" />
        </mxCell>
        <mxCell id="3c4MEUsWvrZjwtGZ-gOU-13" value="Final user friendly GUI design for the application" style="rounded=1;whiteSpace=wrap;html=1;fillColor=#00FFFF;" vertex="1" parent="mQXYbLhgj30lvq0sb5Eb-1">
          <mxGeometry x="1202" y="240" width="120" height="60" as="geometry" />
        </mxCell>
        <mxCell id="3c4MEUsWvrZjwtGZ-gOU-14" value="" style="edgeStyle=none;rounded=0;orthogonalLoop=1;jettySize=auto;html=1;fontSize=12;" edge="1" parent="mQXYbLhgj30lvq0sb5Eb-1" source="3c4MEUsWvrZjwtGZ-gOU-15" target="3c4MEUsWvrZjwtGZ-gOU-17">
          <mxGeometry relative="1" as="geometry" />
        </mxCell>
        <mxCell id="3c4MEUsWvrZjwtGZ-gOU-15" value="Writing the code for the front end, back end and the algorithms needed for the functioning of the website according to the design" style="rounded=1;whiteSpace=wrap;html=1;fillColor=#00FFFF;" vertex="1" parent="mQXYbLhgj30lvq0sb5Eb-1">
          <mxGeometry x="1182.25" y="360" width="159.5" height="80" as="geometry" />
        </mxCell>
        <mxCell id="3c4MEUsWvrZjwtGZ-gOU-16" value="" style="edgeStyle=none;rounded=0;orthogonalLoop=1;jettySize=auto;html=1;fontSize=12;" edge="1" parent="mQXYbLhgj30lvq0sb5Eb-1" source="3c4MEUsWvrZjwtGZ-gOU-17" target="3c4MEUsWvrZjwtGZ-gOU-18">
          <mxGeometry relative="1" as="geometry" />
        </mxCell>
        <mxCell id="3c4MEUsWvrZjwtGZ-gOU-17" value="&lt;span&gt;Testing and debugging the product&lt;/span&gt;" style="rounded=1;whiteSpace=wrap;html=1;fillColor=#00FFFF;" vertex="1" parent="mQXYbLhgj30lvq0sb5Eb-1">
          <mxGeometry x="1202" y="490" width="120" height="60" as="geometry" />
        </mxCell>
        <mxCell id="3c4MEUsWvrZjwtGZ-gOU-18" value="Modifying features depending on the users feedback and rating" style="rounded=1;whiteSpace=wrap;html=1;fillColor=#00FFFF;" vertex="1" parent="mQXYbLhgj30lvq0sb5Eb-1">
          <mxGeometry x="1199.5" y="620" width="125" height="80" as="geometry" />
        </mxCell>
        <mxCell id="3c4MEUsWvrZjwtGZ-gOU-19" value="" style="edgeStyle=none;rounded=0;orthogonalLoop=1;jettySize=auto;html=1;fontSize=12;" edge="1" parent="mQXYbLhgj30lvq0sb5Eb-1" source="3c4MEUsWvrZjwtGZ-gOU-20" target="3c4MEUsWvrZjwtGZ-gOU-2">
          <mxGeometry relative="1" as="geometry" />
        </mxCell>
        <mxCell id="3c4MEUsWvrZjwtGZ-gOU-20" value="Checking if we can get the time, funding, technology and technical people for the project&lt;br&gt;Survey with the targeted community for estimating the need of our project" style="rounded=1;whiteSpace=wrap;html=1;fontSize=12;fillColor=#00FFFF;" vertex="1" parent="mQXYbLhgj30lvq0sb5Eb-1">
          <mxGeometry x="39" y="230" width="230" height="80" as="geometry" />
        </mxCell>
        <mxCell id="3c4MEUsWvrZjwtGZ-gOU-21" value="Stakeholders satisfied with the prototype" style="text;html=1;align=center;verticalAlign=middle;resizable=0;points=[];autosize=1;strokeColor=none;fillColor=none;fontSize=12;" vertex="1" parent="mQXYbLhgj30lvq0sb5Eb-1">
          <mxGeometry x="970" y="250" width="230" height="20" as="geometry" />
        </mxCell>
      </root>
    </mxGraphModel>
  </diagram>
  <diagram id="H8zwNXcwD0Bhs2qUU92p" name="Spiral Model">
    <mxGraphModel dx="2128" dy="1639" grid="1" gridSize="10" guides="1" tooltips="1" connect="1" arrows="1" fold="1" page="1" pageScale="1" pageWidth="850" pageHeight="1100" math="0" shadow="0">
      <root>
        <mxCell id="oq3xqh5TkOo_qyZj2K8q-0" />
        <mxCell id="oq3xqh5TkOo_qyZj2K8q-1" parent="oq3xqh5TkOo_qyZj2K8q-0" />
        <mxCell id="QJZFQQsIHPFljaKGoAIh-10" value="" style="shape=or;whiteSpace=wrap;html=1;direction=south;" parent="oq3xqh5TkOo_qyZj2K8q-1" vertex="1">
          <mxGeometry x="90" y="280" width="540" height="250" as="geometry" />
        </mxCell>
        <mxCell id="QJZFQQsIHPFljaKGoAIh-9" value="" style="shape=or;whiteSpace=wrap;html=1;direction=north;" parent="oq3xqh5TkOo_qyZj2K8q-1" vertex="1">
          <mxGeometry x="160" y="40" width="470" height="240" as="geometry" />
        </mxCell>
        <mxCell id="QJZFQQsIHPFljaKGoAIh-8" value="" style="shape=or;whiteSpace=wrap;html=1;direction=south;" parent="oq3xqh5TkOo_qyZj2K8q-1" vertex="1">
          <mxGeometry x="160" y="280" width="400" height="190" as="geometry" />
        </mxCell>
        <mxCell id="QJZFQQsIHPFljaKGoAIh-6" value="" style="shape=or;whiteSpace=wrap;html=1;direction=south;" parent="oq3xqh5TkOo_qyZj2K8q-1" vertex="1">
          <mxGeometry x="240" y="280" width="240" height="100" as="geometry" />
        </mxCell>
        <mxCell id="QJZFQQsIHPFljaKGoAIh-7" value="" style="shape=or;whiteSpace=wrap;html=1;direction=north;" parent="oq3xqh5TkOo_qyZj2K8q-1" vertex="1">
          <mxGeometry x="240" y="120" width="320" height="160" as="geometry" />
        </mxCell>
        <mxCell id="QJZFQQsIHPFljaKGoAIh-1" value="" style="endArrow=classic;startArrow=classic;html=1;rounded=0;" parent="oq3xqh5TkOo_qyZj2K8q-1" edge="1">
          <mxGeometry width="50" height="50" relative="1" as="geometry">
            <mxPoint x="930" y="280" as="sourcePoint" />
            <mxPoint x="-90" y="280" as="targetPoint" />
          </mxGeometry>
        </mxCell>
        <mxCell id="QJZFQQsIHPFljaKGoAIh-5" value="" style="shape=or;whiteSpace=wrap;html=1;direction=north;" parent="oq3xqh5TkOo_qyZj2K8q-1" vertex="1">
          <mxGeometry x="310" y="200" width="170" height="80" as="geometry" />
        </mxCell>
        <mxCell id="QJZFQQsIHPFljaKGoAIh-0" value="" style="endArrow=classic;startArrow=classic;html=1;rounded=0;" parent="oq3xqh5TkOo_qyZj2K8q-1" edge="1">
          <mxGeometry width="50" height="50" relative="1" as="geometry">
            <mxPoint x="400" y="680" as="sourcePoint" />
            <mxPoint x="400" y="-160" as="targetPoint" />
          </mxGeometry>
        </mxCell>
        <mxCell id="QJZFQQsIHPFljaKGoAIh-12" value="&lt;b&gt;&lt;font style=&quot;font-size: 24px&quot;&gt;Develop, verify next-level product&lt;/font&gt;&lt;/b&gt;" style="text;html=1;align=center;verticalAlign=middle;resizable=0;points=[];autosize=1;strokeColor=none;fillColor=none;" parent="oq3xqh5TkOo_qyZj2K8q-1" vertex="1">
          <mxGeometry x="560" y="660" width="400" height="20" as="geometry" />
        </mxCell>
        <mxCell id="QJZFQQsIHPFljaKGoAIh-14" value="&lt;b&gt;&lt;font style=&quot;font-size: 24px&quot;&gt;Plan next phase&lt;/font&gt;&lt;/b&gt;" style="text;html=1;align=center;verticalAlign=middle;resizable=0;points=[];autosize=1;strokeColor=none;fillColor=none;" parent="oq3xqh5TkOo_qyZj2K8q-1" vertex="1">
          <mxGeometry x="-110" y="660" width="200" height="20" as="geometry" />
        </mxCell>
        <mxCell id="QJZFQQsIHPFljaKGoAIh-15" value="&lt;b&gt;&lt;font style=&quot;font-size: 24px&quot;&gt;Determine objectives alternatives and constraints&lt;/font&gt;&lt;/b&gt;" style="text;html=1;align=center;verticalAlign=middle;resizable=0;points=[];autosize=1;strokeColor=none;fillColor=none;" parent="oq3xqh5TkOo_qyZj2K8q-1" vertex="1">
          <mxGeometry x="-290" y="-50" width="580" height="20" as="geometry" />
        </mxCell>
        <mxCell id="QJZFQQsIHPFljaKGoAIh-16" value="&lt;b&gt;&lt;font style=&quot;font-size: 24px&quot;&gt;Evaluate alternatives identify reserve risks&lt;/font&gt;&lt;/b&gt;" style="text;html=1;align=center;verticalAlign=middle;resizable=0;points=[];autosize=1;strokeColor=none;fillColor=none;" parent="oq3xqh5TkOo_qyZj2K8q-1" vertex="1">
          <mxGeometry x="600" y="-50" width="500" height="20" as="geometry" />
        </mxCell>
      </root>
    </mxGraphModel>
  </diagram>
  <diagram id="ds1A3nsENdrNwXLyjjkW" name="User flow diagram">
    <mxGraphModel dx="1278" dy="539" grid="1" gridSize="10" guides="1" tooltips="1" connect="1" arrows="1" fold="1" page="1" pageScale="1" pageWidth="850" pageHeight="1100" math="0" shadow="0">
      <root>
        <mxCell id="YfRNZTGzkwOAzWpXfugV-0" />
        <mxCell id="YfRNZTGzkwOAzWpXfugV-1" parent="YfRNZTGzkwOAzWpXfugV-0" />
        <mxCell id="5qfEs1xi0CSyXHoTJJTz-1" value="" style="edgeStyle=orthogonalEdgeStyle;rounded=0;orthogonalLoop=1;jettySize=auto;html=1;" parent="YfRNZTGzkwOAzWpXfugV-1" source="YfRNZTGzkwOAzWpXfugV-2" target="5qfEs1xi0CSyXHoTJJTz-0" edge="1">
          <mxGeometry relative="1" as="geometry" />
        </mxCell>
        <mxCell id="5qfEs1xi0CSyXHoTJJTz-3" style="edgeStyle=orthogonalEdgeStyle;rounded=0;orthogonalLoop=1;jettySize=auto;html=1;exitX=0.5;exitY=1;exitDx=0;exitDy=0;entryX=0.5;entryY=0;entryDx=0;entryDy=0;" parent="YfRNZTGzkwOAzWpXfugV-1" source="YfRNZTGzkwOAzWpXfugV-2" target="5qfEs1xi0CSyXHoTJJTz-2" edge="1">
          <mxGeometry relative="1" as="geometry" />
        </mxCell>
        <mxCell id="5qfEs1xi0CSyXHoTJJTz-19" value="" style="edgeStyle=orthogonalEdgeStyle;rounded=0;orthogonalLoop=1;jettySize=auto;html=1;fontSize=12;" parent="YfRNZTGzkwOAzWpXfugV-1" source="YfRNZTGzkwOAzWpXfugV-2" target="5qfEs1xi0CSyXHoTJJTz-18" edge="1">
          <mxGeometry relative="1" as="geometry" />
        </mxCell>
        <mxCell id="YfRNZTGzkwOAzWpXfugV-2" value="Login" style="rounded=1;whiteSpace=wrap;html=1;" parent="YfRNZTGzkwOAzWpXfugV-1" vertex="1">
          <mxGeometry x="350" y="120" width="120" height="60" as="geometry" />
        </mxCell>
        <mxCell id="5qfEs1xi0CSyXHoTJJTz-5" value="" style="edgeStyle=orthogonalEdgeStyle;rounded=0;orthogonalLoop=1;jettySize=auto;html=1;" parent="YfRNZTGzkwOAzWpXfugV-1" source="5qfEs1xi0CSyXHoTJJTz-0" target="5qfEs1xi0CSyXHoTJJTz-4" edge="1">
          <mxGeometry relative="1" as="geometry" />
        </mxCell>
        <mxCell id="5qfEs1xi0CSyXHoTJJTz-9" value="" style="edgeStyle=orthogonalEdgeStyle;rounded=0;orthogonalLoop=1;jettySize=auto;html=1;" parent="YfRNZTGzkwOAzWpXfugV-1" source="5qfEs1xi0CSyXHoTJJTz-0" target="5qfEs1xi0CSyXHoTJJTz-8" edge="1">
          <mxGeometry relative="1" as="geometry" />
        </mxCell>
        <mxCell id="5qfEs1xi0CSyXHoTJJTz-0" value="Interface 1" style="rounded=1;whiteSpace=wrap;html=1;" parent="YfRNZTGzkwOAzWpXfugV-1" vertex="1">
          <mxGeometry x="230" y="304" width="120" height="60" as="geometry" />
        </mxCell>
        <mxCell id="5qfEs1xi0CSyXHoTJJTz-7" value="" style="edgeStyle=orthogonalEdgeStyle;rounded=0;orthogonalLoop=1;jettySize=auto;html=1;" parent="YfRNZTGzkwOAzWpXfugV-1" source="5qfEs1xi0CSyXHoTJJTz-2" target="5qfEs1xi0CSyXHoTJJTz-6" edge="1">
          <mxGeometry relative="1" as="geometry" />
        </mxCell>
        <mxCell id="5qfEs1xi0CSyXHoTJJTz-11" value="" style="edgeStyle=orthogonalEdgeStyle;rounded=0;orthogonalLoop=1;jettySize=auto;html=1;" parent="YfRNZTGzkwOAzWpXfugV-1" source="5qfEs1xi0CSyXHoTJJTz-2" target="5qfEs1xi0CSyXHoTJJTz-10" edge="1">
          <mxGeometry relative="1" as="geometry" />
        </mxCell>
        <mxCell id="5qfEs1xi0CSyXHoTJJTz-2" value="Interface 2" style="rounded=1;whiteSpace=wrap;html=1;" parent="YfRNZTGzkwOAzWpXfugV-1" vertex="1">
          <mxGeometry x="480" y="304" width="120" height="60" as="geometry" />
        </mxCell>
        <mxCell id="5qfEs1xi0CSyXHoTJJTz-4" value="Will be used by differently abled people, speech will be converted into sign language" style="shape=document;whiteSpace=wrap;html=1;boundedLbl=1;rounded=1;" parent="YfRNZTGzkwOAzWpXfugV-1" vertex="1">
          <mxGeometry x="40" y="279" width="140" height="110" as="geometry" />
        </mxCell>
        <mxCell id="5qfEs1xi0CSyXHoTJJTz-6" value="Will be used by normal user, sign language will be converted into text/speech" style="shape=document;whiteSpace=wrap;html=1;boundedLbl=1;rounded=1;" parent="YfRNZTGzkwOAzWpXfugV-1" vertex="1">
          <mxGeometry x="670" y="284" width="140" height="100" as="geometry" />
        </mxCell>
        <mxCell id="5qfEs1xi0CSyXHoTJJTz-13" value="" style="edgeStyle=orthogonalEdgeStyle;rounded=0;orthogonalLoop=1;jettySize=auto;html=1;" parent="YfRNZTGzkwOAzWpXfugV-1" source="5qfEs1xi0CSyXHoTJJTz-8" target="5qfEs1xi0CSyXHoTJJTz-12" edge="1">
          <mxGeometry relative="1" as="geometry" />
        </mxCell>
        <mxCell id="5qfEs1xi0CSyXHoTJJTz-8" value="Input : Audio upload" style="whiteSpace=wrap;html=1;rounded=1;" parent="YfRNZTGzkwOAzWpXfugV-1" vertex="1">
          <mxGeometry x="230" y="444" width="120" height="60" as="geometry" />
        </mxCell>
        <mxCell id="5qfEs1xi0CSyXHoTJJTz-15" value="" style="edgeStyle=orthogonalEdgeStyle;rounded=0;orthogonalLoop=1;jettySize=auto;html=1;" parent="YfRNZTGzkwOAzWpXfugV-1" source="5qfEs1xi0CSyXHoTJJTz-10" target="5qfEs1xi0CSyXHoTJJTz-14" edge="1">
          <mxGeometry relative="1" as="geometry" />
        </mxCell>
        <mxCell id="5qfEs1xi0CSyXHoTJJTz-10" value="Input : Video upload&amp;nbsp;" style="whiteSpace=wrap;html=1;rounded=1;" parent="YfRNZTGzkwOAzWpXfugV-1" vertex="1">
          <mxGeometry x="480" y="444" width="120" height="60" as="geometry" />
        </mxCell>
        <mxCell id="5qfEs1xi0CSyXHoTJJTz-12" value="Output : Sign language audio" style="whiteSpace=wrap;html=1;rounded=1;" parent="YfRNZTGzkwOAzWpXfugV-1" vertex="1">
          <mxGeometry x="230" y="584" width="120" height="60" as="geometry" />
        </mxCell>
        <mxCell id="5qfEs1xi0CSyXHoTJJTz-14" value="Output : Text as subtitles or audio" style="whiteSpace=wrap;html=1;rounded=1;" parent="YfRNZTGzkwOAzWpXfugV-1" vertex="1">
          <mxGeometry x="480" y="584" width="120" height="60" as="geometry" />
        </mxCell>
        <mxCell id="5qfEs1xi0CSyXHoTJJTz-16" value="&lt;b&gt;&lt;font style=&quot;font-size: 24px&quot;&gt;User flow diagram for SignTech&lt;/font&gt;&lt;/b&gt;" style="text;html=1;align=center;verticalAlign=middle;resizable=0;points=[];autosize=1;strokeColor=none;fillColor=none;" parent="YfRNZTGzkwOAzWpXfugV-1" vertex="1">
          <mxGeometry x="235" y="40" width="380" height="20" as="geometry" />
        </mxCell>
        <mxCell id="5qfEs1xi0CSyXHoTJJTz-17" value="&lt;font style=&quot;font-size: 12px&quot;&gt;After successful login&lt;/font&gt;" style="text;html=1;align=center;verticalAlign=middle;resizable=0;points=[];autosize=1;strokeColor=none;fillColor=none;fontSize=24;" parent="YfRNZTGzkwOAzWpXfugV-1" vertex="1">
          <mxGeometry x="410" y="190" width="130" height="40" as="geometry" />
        </mxCell>
        <mxCell id="5qfEs1xi0CSyXHoTJJTz-21" style="edgeStyle=orthogonalEdgeStyle;rounded=0;orthogonalLoop=1;jettySize=auto;html=1;exitX=0;exitY=0;exitDx=0;exitDy=0;entryX=0.5;entryY=0;entryDx=0;entryDy=0;fontSize=12;" parent="YfRNZTGzkwOAzWpXfugV-1" source="5qfEs1xi0CSyXHoTJJTz-18" target="YfRNZTGzkwOAzWpXfugV-2" edge="1">
          <mxGeometry relative="1" as="geometry">
            <Array as="points">
              <mxPoint x="610" y="120" />
              <mxPoint x="610" y="100" />
              <mxPoint x="410" y="100" />
            </Array>
          </mxGeometry>
        </mxCell>
        <mxCell id="5qfEs1xi0CSyXHoTJJTz-18" value="Signup page" style="whiteSpace=wrap;html=1;rounded=1;" parent="YfRNZTGzkwOAzWpXfugV-1" vertex="1">
          <mxGeometry x="550" y="120" width="120" height="60" as="geometry" />
        </mxCell>
        <mxCell id="5qfEs1xi0CSyXHoTJJTz-22" value="New User" style="text;html=1;align=center;verticalAlign=middle;resizable=0;points=[];autosize=1;strokeColor=none;fillColor=none;fontSize=12;" parent="YfRNZTGzkwOAzWpXfugV-1" vertex="1">
          <mxGeometry x="470" y="130" width="70" height="20" as="geometry" />
        </mxCell>
      </root>
    </mxGraphModel>
  </diagram>
</mxfile>
